<?xml version="1.0" encoding="UTF-8" standalone="no"?>
<!-- Created with Inkscape (http://www.inkscape.org/) -->

<svg
   xmlns:dc="http://purl.org/dc/elements/1.1/"
   xmlns:cc="http://creativecommons.org/ns#"
   xmlns:rdf="http://www.w3.org/1999/02/22-rdf-syntax-ns#"
   xmlns:svg="http://www.w3.org/2000/svg"
   xmlns="http://www.w3.org/2000/svg"
   xmlns:sodipodi="http://sodipodi.sourceforge.net/DTD/sodipodi-0.dtd"
   xmlns:inkscape="http://www.inkscape.org/namespaces/inkscape"
   id="svg7384"
   height="16"
   width="16"
   version="1.1"
   inkscape:version="0.92.4 5da689c313, 2019-01-14"
   sodipodi:docname="overview-button2.svg">
  <defs
     id="defs12" />
  <sodipodi:namedview
     pagecolor="#ffffff"
     bordercolor="#666666"
     borderopacity="1"
     objecttolerance="10"
     gridtolerance="10"
     guidetolerance="10"
     inkscape:pageopacity="0"
     inkscape:pageshadow="2"
     inkscape:window-width="1890"
     inkscape:window-height="1123"
     id="namedview10"
     showgrid="false"
     inkscape:zoom="58.6875"
     inkscape:cx="6.7575665"
     inkscape:cy="8.8801678"
     inkscape:window-x="15"
     inkscape:window-y="40"
     inkscape:window-maximized="0"
     inkscape:current-layer="svg7384"
     showguides="true" />
  <metadata
     id="metadata90">
    <rdf:RDF>
      <cc:Work
         rdf:about="">
        <dc:format>image/svg+xml</dc:format>
        <dc:type
           rdf:resource="http://purl.org/dc/dcmitype/StillImage" />
        <dc:title>Gnome Symbolic Icon Theme</dc:title>
      </cc:Work>
    </rdf:RDF>
  </metadata>
  <title
     id="title9167">Gnome Symbolic Icon Theme</title>
  <g
     id="g817"
     transform="translate(-0.01526461,1.5105297)">
    <path
       id="rect5771"
       style="color:#bebebe;fill:#bebebe;stroke-width:1.54139817"
       d="m 0.98263591,4.177674 c -0.37452903,0 -0.67436168,0.4582266 -0.67436168,1.0114652 v 5.6834438 c 0,0.553253 0.29983265,1.01148 0.67436168,1.01148 H 7.3409029 c 0.374529,0 0.6743618,-0.458227 0.6743618,-1.01148 V 5.1891392 c 0,-0.5532386 -0.2998328,-1.0114652 -0.6743618,-1.0114652 z M 1.8496723,7.2603158 H 6.4738665 V 10.342958 H 1.8496723 Z"
       inkscape:connector-curvature="0" />
    <path
       id="rect7987"
       style="color:#bebebe;fill:#bebebe;stroke-width:1.54139817"
       d="m 10.231024,1.0948777 c -0.374528,0 -0.6743613,0.439129 -0.6743613,0.9632967 v 4.2385365 c 0,0.5241679 0.2998333,0.963312 0.6743613,0.963312 h 4.816869 c 0.374529,0 0.674362,-0.4391441 0.674362,-0.963312 V 2.0581744 c 0,-0.5241677 -0.299833,-0.9632967 -0.674362,-0.9632967 z m 0.867038,3.0826419 h 3.082795 v 1.5412901 h -3.082795 z"
       inkscape:connector-curvature="0" />
  </g>
</svg>
